<?xml version="1.0" encoding="UTF-8"?>
<svg id="Layer_2" data-name="Layer 2" xmlns="http://www.w3.org/2000/svg" viewBox="0 0 2257.33 397.61">
  <defs>
    <style>
      .cls-1 {
        fill: #e5dfe8;
      }
    </style>
  </defs>
  <g id="Layer_1-2" data-name="Layer 1">
    <path class="cls-1" d="M0,384.76V12.3c0-3.75,3.04-6.78,6.78-6.78h44.34c3.75,0,6.78,3.04,6.78,6.78v372.46c0,3.75-3.04,6.78-6.78,6.78H6.78c-3.75,0-6.78-3.04-6.78-6.78Z"/>
    <path class="cls-1" d="M288.41.55c26.47,0,49.08,4.33,67.83,12.96,17.21,7.93,33.64,20.27,49.3,37.02,2.4,2.57,2.42,6.57.06,9.18l-27.78,30.68c-2.66,2.94-7.28,2.98-9.98.07-10.85-11.65-21.71-20.66-32.55-27.05-12.5-7.35-28.12-11.03-46.87-11.03-23.16,0-44.76,7.26-64.8,21.78-20.04,14.53-35.66,33-46.87,55.42-11.22,22.43-16.82,45.59-16.82,69.48s5.6,47.15,16.82,69.76c11.21,22.61,26.83,41.08,46.87,55.42,20.03,14.34,41.64,21.51,64.8,21.51,29.79,0,55.98-9.4,78.58-28.21,1.56-1.3,2.48-3.22,2.48-5.25v-67.29c0-3.75-3.04-6.78-6.78-6.78h-92.32c-3.75,0-6.78-3.04-6.78-6.78v-33.31c0-3.75,3.04-6.78,6.78-6.78h147.46c3.75,0,6.78,3.04,6.78,6.78v136.2c0,1.68-.61,3.31-1.74,4.55-16.55,18.19-36.1,32.43-58.64,42.72-23.35,10.66-48.62,15.99-75.83,15.99-35.66,0-67.83-8.91-96.51-26.75-28.68-17.83-50.83-41.82-66.45-71.97-15.63-30.14-23.44-63.32-23.44-99.54s7.81-69.48,23.44-99.82c15.62-30.33,37.78-54.41,66.45-72.24C220.58,9.47,252.74.55,288.41.55Z"/>
    <path class="cls-1" d="M1372.63,88.16c-6.07-16.9-15.08-32.07-27.03-45.49-11.95-13.42-27.76-23.9-47.42-31.44-8.75-3.35-18.07-5.96-27.95-7.81-10.59-2-21.81-3.14-33.69-3.42h-604c-11.76.06-23,1.05-33.69,2.98-11.97,2.15-23.26,5.48-33.88,9.98-20.41,8.64-36.59,20.04-48.53,34.19-11.95,14.16-21.05,29.5-27.3,46.05-6.26,16.54-9.38,33.27-9.38,50.18v241.38c0,3.74,3.04,6.78,6.79,6.78h41.58c3.74,0,6.78-3.04,6.78-6.78v-94.52c0-3.75,3.04-6.79,6.78-6.79h57.16v.41h671.38v-.48h46.81c3.74,0,6.78,3.04,6.78,6.79v94.52c0,3.74,3.04,6.78,6.78,6.78h44.34c3.75,0,6.79-3.04,6.79-6.78v-241.38c0-19.85-3.04-38.23-9.1-55.15ZM1323.82,229.72c0,3.75-3.04,6.79-6.78,6.79h-46.81v-.51h-671.38v.58h-57.16c-3.74,0-6.78-3.04-6.78-6.79v-86.41c0-20.96,4.96-38.78,14.89-53.49,9.93-14.7,22.06-25.18,36.4-31.44,11.64-5.07,24.24-8.08,37.82-9.03h615.53c24.5,1.89,44.23,10.39,59.18,25.51,16.72,16.91,25.09,39.7,25.09,68.38v86.41Z"/>
    <path class="cls-1" d="M1473.62,11.51h44.34c3.75,0,6.78,3.04,6.78,6.78v241.93c0,27.57,7.72,48.99,23.16,64.25,15.44,15.26,37.13,22.89,65.07,22.89h88.62c3.75,0,6.78,3.04,6.78,6.78v36.62c0,3.75-3.04,6.78-6.78,6.78h-88.62c-43.38,0-78.58-11.76-105.61-35.29-27.02-23.52-40.53-57.53-40.53-102.02V18.3c0-3.75,3.04-6.78,6.78-6.78Z"/>
    <path class="cls-1" d="M1962.41,11.51h43.72c2.98,0,5.61,1.95,6.49,4.8l92.04,301.02c.15.47.58.8,1.08.8h0c.49,0,.92-.31,1.07-.78l98.58-301.16c.91-2.79,3.51-4.67,6.45-4.67h38.71c4.6,0,7.87,4.49,6.45,8.87l-120.25,372.46c-.9,2.8-3.51,4.7-6.45,4.7h-54.01c-2.98,0-5.61-1.95-6.49-4.8l-113.87-372.46c-1.33-4.36,1.93-8.77,6.49-8.77Z"/>
  </g>
</svg>