<?xml version="1.0" encoding="UTF-8"?>
<svg id="Layer_2" data-name="Layer 2" xmlns="http://www.w3.org/2000/svg" viewBox="0 0 386.33 386.03">
  <g id="Layer_1-2" data-name="Layer 1">
    <path d="M0,379.24V6.78C0,3.04,3.04,0,6.78,0h44.34c3.75,0,6.78,3.04,6.78,6.78v372.46c0,3.75-3.04,6.78-6.78,6.78H6.78c-3.75,0-6.78-3.04-6.78-6.78Z"/>
    <path d="M91.41,0h43.72c2.98,0,5.61,1.95,6.49,4.8l92.04,301.02c.15.47.58.8,1.08.8h0c.49,0,.92-.31,1.07-.78L334.38,4.67c.91-2.79,3.51-4.67,6.45-4.67h38.71c4.6,0,7.87,4.49,6.45,8.87l-120.25,372.46c-.9,2.8-3.51,4.7-6.45,4.7h-54.01c-2.98,0-5.61-1.95-6.49-4.8L84.92,8.77c-1.33-4.36,1.93-8.77,6.49-8.77Z"/>
  </g>
</svg>